<?xml version="1.0" encoding="UTF-8"?>
<svg
  version="1.1"
  xmlns="http://www.w3.org/2000/svg"
  viewBox="303 337 295 295"
  role="img"
  aria-labelledby="title desc"
>
  <title id="title">Nerve icon</title>
  <desc id="desc">A blue neural node icon.</desc>

  <path
    d="M0 0 C4.36216152 2.63833888 7.76129025 5.26067151 9.29296875 10.2734375 C10.00771486 16.56320325 10.37500537 21.08045496 6.87109375 26.484375 C3.90105682 30.09608657 0.73233505 31.77302277 -3.76953125 32.7734375 C-4.63578125 32.8559375 -5.50203125 32.9384375 -6.39453125 33.0234375 C-8.84361224 40.2862294 -11.1771545 47.5808368 -13.45703125 54.8984375 C-13.80830078 56.00574219 -14.15957031 57.11304688 -14.52148438 58.25390625 C-18.00674311 69.46734741 -19.76663147 80.31174152 -20.39453125 92.0234375 C-20.49507812 93.19132812 -20.595625 94.35921875 -20.69921875 95.5625 C-21.18809671 101.52870368 -21.18809671 101.52870368 -19.1484375 106.94921875 C-14.69889983 110.59722307 -9.89359 110.56247436 -4.39453125 110.0234375 C-1.20855363 109.2945562 1.79823389 108.23359831 4.85546875 107.0859375 C5.71100342 106.77454834 6.56653809 106.46315918 7.44799805 106.14233398 C31.57877772 98.32998417 31.57877772 98.32998417 52.60546875 85.0234375 C52.82499921 82.83703282 53.03089797 80.64925433 53.23046875 78.4609375 C54.32738434 70.41416119 57.08874576 66.66457826 63.2578125 61.69140625 C68.60556557 57.84047974 74.19377581 57.3133142 80.60546875 58.0234375 C87.81392892 59.91280018 92.43613259 63.94710383 96.60546875 70.0234375 C99.2859341 75.50091018 99.63805551 81.59078423 97.8828125 87.42578125 C95.11020432 94.17208699 91.16048524 98.66189058 84.60546875 102.0234375 C78.92762318 103.74620261 72.55165012 104.20367159 66.9921875 101.9765625 C64.78320868 100.74734351 62.68786906 99.45508771 60.60546875 98.0234375 C59.61546875 97.3634375 58.62546875 96.7034375 57.60546875 96.0234375 C30.78101647 108.98551487 30.78101647 108.98551487 6.359375 125.87890625 C4.0571786 127.67168047 1.9994416 128.86035146 -0.58203125 130.1484375 C-3.5741817 132.26098594 -4.15563232 134.96567935 -4.8815918 138.46704102 C-6.02031404 145.88112229 -5.47504957 151.48944222 -1.5703125 158.078125 C2.68850172 163.84319847 7.55571979 168.95234406 12.60546875 174.0234375 C13.30542969 174.74917969 14.00539063 175.47492188 14.7265625 176.22265625 C15.84049708 177.36636191 16.97292751 178.49255699 18.12890625 179.59375 C19.53229395 180.95258571 20.82366238 182.42436017 22.10546875 183.8984375 C26.15343562 187.29740968 31.94284718 186.58475597 36.94921875 186.58984375 C42.3638305 187.23196117 45.37616084 189.6280069 48.91796875 193.6484375 C52.09543892 198.12043255 52.06500752 201.65036877 51.60546875 207.0234375 C50.12174746 212.49465977 47.65901851 215.75894954 43.046875 218.91015625 C38.28144388 221.08319284 33.68108266 221.04537319 28.60546875 220.0234375 C24.27549574 217.9866182 21.52157191 215.19719467 18.60546875 211.4609375 C17.53850015 207.79323295 17.81392078 205.65851654 18.16796875 201.8984375 C18.27086697 196.86785795 17.53526454 194.13878196 14.08154297 190.38745117 C11.37835369 187.77133701 8.54562248 185.36822571 5.60546875 183.0234375 C4.99058594 182.52505371 4.37570312 182.02666992 3.7421875 181.51318359 C-7.35826799 172.38632507 -7.35826799 172.38632507 -20.39453125 167.0234375 C-24.02124058 167.46980173 -27.06988855 168.5471969 -30.39453125 170.0234375 C-33.06133865 170.9123733 -34.77769942 171.17853009 -37.52734375 171.26953125 C-38.73777344 171.31883789 -38.73777344 171.31883789 -39.97265625 171.36914062 C-41.64702801 171.42948991 -43.32150993 171.48686899 -44.99609375 171.54101562 C-71.1143014 172.63616199 -90.94869375 192.30460073 -109.39453125 209.0234375 C-111.48087129 210.84806351 -113.5730352 212.66572179 -115.66796875 214.48046875 C-116.23773438 214.98964844 -116.8075 215.49882813 -117.39453125 216.0234375 C-117.95398438 216.47460938 -118.5134375 216.92578125 -119.08984375 217.390625 C-120.91954867 219.68049523 -120.7982935 221.43677536 -120.89453125 224.3359375 C-121.30832492 230.36777603 -122.35109217 234.17935833 -126.95703125 238.3359375 C-132.37683919 242.08811223 -137.96148876 241.57976639 -144.39453125 241.0234375 C-149.32402284 238.77489747 -151.90749987 235.81327572 -154.39453125 231.0234375 C-155.84881556 225.01239569 -155.61867582 220.41236486 -152.39453125 215.0234375 C-150.04687126 212.50095177 -147.4913984 210.57187107 -144.39453125 209.0234375 C-142.62612055 209.00464683 -140.85762174 208.98836499 -139.08911133 208.98901367 C-129.64254626 208.86461713 -124.43863659 206.5272569 -117.39453125 200.0234375 C-116.36044253 199.10816747 -115.3252391 198.19415567 -114.2890625 197.28125 C-111.49236716 194.7840804 -108.76826912 192.21974343 -106.06494141 189.62207031 C-104.40089525 188.02952804 -102.71689976 186.46024252 -101.03125 184.890625 C-92.10560506 176.4344077 -80.13706302 164.47979793 -79.12890625 151.640625 C-79.19528986 135.74175144 -81.72471094 124.26234903 -92.39453125 112.0234375 C-92.39453125 111.3634375 -92.39453125 110.7034375 -92.39453125 110.0234375 C-93.05453125 110.0234375 -93.71453125 110.0234375 -94.39453125 110.0234375 C-95.76953125 108.5546875 -95.76953125 108.5546875 -97.39453125 106.5234375 C-100.90954668 102.38467194 -104.74820908 99.06846416 -109.0703125 95.79296875 C-111.39453125 94.0234375 -111.39453125 94.0234375 -114.14453125 91.4609375 C-118.86410692 89.37343288 -122.98727707 90.32363102 -128.04296875 90.83984375 C-133.85947527 91.15846357 -136.67581274 89.39841231 -141.20703125 85.7734375 C-144.87077951 81.16758255 -145.62338797 76.79338914 -145.45703125 71.0234375 C-144.83185007 66.08224645 -142.94173858 63.57590318 -139.22265625 60.36328125 C-134.71411286 57.05894283 -130.95128334 56.45834407 -125.39453125 57.0234375 C-120.70002851 58.72893101 -116.46622243 61.00661057 -113.39453125 65.0234375 C-111.71951431 68.70847477 -111.37577456 70.8296184 -111.76953125 74.8984375 C-111.83246635 77.65184808 -111.56535913 78.77798975 -109.97265625 81.06640625 C-102.77886589 88.50478548 -93.84006891 93.79397587 -85.14453125 99.2734375 C-84.47099609 99.69802246 -83.79746094 100.12260742 -83.10351562 100.56005859 C-76.68731791 105.11511529 -76.68731791 105.11511529 -69.43359375 106.93359375 C-67.08200989 105.88394042 -64.82567085 104.68806869 -62.57080078 103.44555664 C-56.13555144 99.92788781 -50.82791595 97.94439779 -43.39453125 99.0234375 C-43.1625 98.38019531 -42.93046875 97.73695313 -42.69140625 97.07421875 C-41.30168654 93.8050287 -39.66891417 90.7585618 -37.96777344 87.64355469 C-30.77184626 74.4147321 -25.89734971 61.43683108 -22.01953125 46.8984375 C-21.75624023 45.91391602 -21.49294922 44.92939453 -21.22167969 43.91503906 C-19.43586656 37.06215664 -19.43586656 37.06215664 -19.39453125 30.0234375 C-20.6958825 28.33168087 -22.03208329 26.66638945 -23.39453125 25.0234375 C-26.01229271 18.41670619 -25.6436649 13.27118498 -23.14453125 6.7734375 C-18.11294602 -1.13333929 -8.65392267 -3.52933225 0 0 Z "
    fill="#6185E0"
    transform="translate(478.39453125,358.9765625)"
  />
  <path
    d="M0 0 C6.11192282 3.76817721 9.03835298 8.10724644 11.30078125 14.89453125 C12.11920675 20.82227021 11.40701005 25.14037091 7.90234375 30.03515625 C3.51761591 35.12571833 -0.48155564 38.08277153 -7.26171875 38.95703125 C-13.6602727 39.19565136 -17.6517582 37.29965123 -22.88671875 33.70703125 C-27.15919481 29.43455519 -29.38469769 25.41069974 -30.13671875 19.39453125 C-29.13246118 11.36047073 -26.18798575 5.6410074 -19.76171875 0.58203125 C-13.7742911 -2.54688255 -6.18013997 -2.53108482 0 0 Z "
    fill="#FBFCFD"
    transform="translate(444.69921875,476.10546875)"
  />
  <path
    d="M0 0 C2.7883672 1.77441549 4.03461554 2.97176927 5.75 5.75 C6.64486349 10.63547094 6.24271949 14.70770878 4.125 19.1875 C1.39986116 22.12778138 -0.4315554 23.50166234 -4.25 24.75 C-8.98049534 24.75 -11.89332815 24.37732929 -15.625 21.4375 C-18.42210487 18.5737974 -20.14945412 16.62350489 -20.3671875 12.56640625 C-19.82643174 7.53388893 -19.13995468 4.31579179 -15.25 0.75 C-10.24834531 -2.08877699 -5.3064775 -2.04095289 0 0 Z "
    fill="#FBFAFD"
    transform="translate(561.25,428.25)"
  />
  <path
    d="M0 0 C0 4.34241629 -2.65442246 6.26678104 -5.5 9.25 C-6.05099365 9.83555664 -6.6019873 10.42111328 -7.16967773 11.02441406 C-11.23088119 15.29636555 -15.42461746 19.27982915 -20 23 C-20.96808594 23.79792969 -21.93617188 24.59585938 -22.93359375 25.41796875 C-25.61505327 27.62120619 -28.30406915 29.81451194 -31 32 C-31.66 31.67 -32.32 31.34 -33 31 C-32.12601562 30.27039063 -31.25203125 29.54078125 -30.3515625 28.7890625 C-19.66032328 19.74942322 -9.78558072 10.00517774 0 0 Z "
    fill="#4FACE6"
    transform="translate(388,533)"
  />
  <path
    d="M0 0 C0.99 0.33 1.98 0.66 3 1 C1.63875 1.86625 1.63875 1.86625 0.25 2.75 C-2.57632665 4.70668768 -4.87935801 6.30841593 -7 9 C-7.25069913 11.62570704 -7.25069913 11.62570704 -7 14 C-7.33 14.33 -7.66 14.66 -8 15 C-8.04092937 17.33297433 -8.04241723 19.66705225 -8 22 C-8.66 22 -9.32 22 -10 22 C-11.19515063 15.91559679 -11.25333033 11.43770927 -8 6 C-5.65234001 3.47751427 -3.09686715 1.54843357 0 0 Z "
    fill="#48BDE7"
    transform="translate(334,568)"
  />
  <path
    d="M0 0 C0.66 0.33 1.32 0.66 2 1 C1.67 1.33 1.34 1.66 1 2 C0.71351121 4.71027491 0.55164579 7.42089608 0.37890625 10.140625 C-0.00664476 13.05014395 -0.79850578 15.3343367 -2 18 C-2.33 18 -2.66 18 -3 18 C-3.04254356 16.00045254 -3.04080783 13.99958364 -3 12 C-2.67 11.67 -2.34 11.34 -2 11 C-1.79224439 9.33795513 -1.63281745 7.66970509 -1.5 6 C-1.11111111 1.11111111 -1.11111111 1.11111111 0 0 Z "
    fill="#48B3E6"
    transform="translate(357,576)"
  />
  <path
    d="M0 0 C1.98983228 3.97966457 2.22400716 4.67675132 1.625 8.75 C1.51414062 9.54921875 1.40328125 10.3484375 1.2890625 11.171875 C1.19367187 11.77515625 1.09828125 12.3784375 1 13 C0.01 13.33 -0.98 13.66 -2 14 C-1.34 9.38 -0.68 4.76 0 0 Z "
    fill="#9163D2"
    transform="translate(567,434)"
  />
  <path
    d="M0 0 C0.99 0.33 1.98 0.66 3 1 C2.0925 1.598125 1.185 2.19625 0.25 2.8125 C-2.22901481 4.48106766 -4.63317911 6.17936855 -7 8 C-7 7.01 -7 6.02 -7 5 C-4.76671858 3.00180084 -2.68345751 1.34172876 0 0 Z "
    fill="#54BEEC"
    transform="translate(334,568)"
  />
</svg>

